<svg width="20" height="20" viewBox="0 0 20 20" fill="none" xmlns="http://www.w3.org/2000/svg">
<path fill-rule="evenodd" clip-rule="evenodd" d="M6 3.5C6 3.22388 6.22388 3 6.5 3H13.5C13.7761 3 14 3.22388 14 3.5C14 3.60425 13.9681 3.70105 13.9136 3.78113C13.8236 3.91321 13.6719 4 13.5 4H13C13 4 12 4.5 12 5.5C12 6.5 13 7 13 7H14C14.5522 7 15 7.44775 15 8V15C15 15.5522 14.5522 16 14 16H6C5.44775 16 5 15.5522 5 15V8C5 7.44775 5.44775 7 6 7H7C7 7 8 6.5 8 5.5C8 4.5 7 4 7 4H6.5C6.22388 4 6 3.77612 6 3.5Z" fill="black"/>
</svg>
